<?xml version="1.0" standalone="no"?>
<svg viewBox="0 0 200 200" xmlns="http://www.w3.org/2000/svg">
  <path fill="#8A3FFC" d="M42.6,-74.7C56,-66.1,68.1,-56.2,76.3,-43.5C84.5,-30.9,88.8,-15.4,88.1,-0.4C87.4,14.6,81.7,29.3,73.7,42.3C65.8,55.4,55.5,66.9,42.9,74.8C30.2,82.7,15.1,86.9,-0.1,87.1C-15.3,87.3,-30.6,83.4,-44.9,76.5C-59.2,69.6,-72.5,59.6,-80.9,46.3C-89.2,33,-92.6,16.5,-92.4,0.1C-92.2,-16.3,-88.3,-32.5,-80.5,-46.7C-72.7,-60.9,-60.9,-73,-46.8,-81.3C-32.8,-89.6,-16.4,-94,-0.9,-92.5C14.6,-90.9,29.2,-83.4,42.6,-74.7Z" transform="translate(100 100)" />
</svg>
